<?xml version="1.0" encoding="iso-8859-1"?>
<!-- Generator: Adobe Illustrator 19.0.0, SVG Export Plug-In . SVG Version: 6.00 Build 0)  -->
<svg version="1.1" id="Capa_1" xmlns="http://www.w3.org/2000/svg" xmlns:xlink="http://www.w3.org/1999/xlink" x="0px" y="0px"
	 viewBox="0 0 496 496" style="enable-background:new 0 0 496 496;" xml:space="preserve">
<path style="fill:#FFA64D;" d="M336,312c-17.672,0-32-14.328-32-32s14.328-32,32-32c9.616,0,18.136,4.328,24,11.04V216h-56v-80h56
	V48H128v40h-16v320h16v40h232V300.96C354.136,307.672,345.616,312,336,312z"/>
<g>
	<path style="fill:#333333;" d="M104,0v32H88v64h16v304H88v64h16v32h304V0H104z M104,48h16v32h-16V48z M104,416h16v32h-16V416z
		 M392,480H120v-16h16v-64h-16V96h16V32h-16V16h272V480z"/>
	<path style="fill:#333333;" d="M336,320c22.056,0,40-17.944,40-40s-17.944-40-40-40c-19.312,0-35.472,13.768-39.192,32H248v16
		h48.808C300.528,306.232,316.688,320,336,320z M336,256c13.232,0,24,10.768,24,24s-10.768,24-24,24
		c-10.416,0-19.216-6.712-22.528-16H336v-16h-22.528C316.784,262.712,325.584,256,336,256z"/>
	<path style="fill:#333333;" d="M376,128h-80v96h80V128z M360,144v16h-48v-16H360z M312,208v-32h48v32H312z"/>
</g>
<g>
</g>
<g>
</g>
<g>
</g>
<g>
</g>
<g>
</g>
<g>
</g>
<g>
</g>
<g>
</g>
<g>
</g>
<g>
</g>
<g>
</g>
<g>
</g>
<g>
</g>
<g>
</g>
<g>
</g>
</svg>
